<svg width="418" height="405" viewBox="0 0 418 405" fill="none" xmlns="http://www.w3.org/2000/svg">
<g opacity="0.9">
<path d="M411.378 250.933C414.764 204.056 334.999 160.097 233.219 152.748C131.439 145.399 46.1861 177.443 42.8011 224.32C39.416 271.198 119.181 315.157 220.961 322.505C322.74 329.854 407.993 297.81 411.378 250.933Z" stroke="#FFED65" stroke-width="0.8" stroke-miterlimit="10"/>
<path d="M404.609 241.198C405.937 195.366 326.33 155.874 226.803 152.99C127.275 150.106 45.5146 184.922 44.1863 230.753C42.858 276.584 122.464 316.076 221.992 318.961C321.52 321.845 403.28 287.029 404.609 241.198Z" stroke="#FFED65" stroke-width="0.8" stroke-miterlimit="10"/>
<path d="M223.174 315.402C320.434 313.823 398.689 276.232 397.961 231.44C397.234 186.649 317.801 151.617 220.541 153.196C123.282 154.775 45.027 192.366 45.7541 237.157C46.4813 281.949 125.915 316.981 223.174 315.402Z" stroke="#FFED65" stroke-width="0.8" stroke-miterlimit="10"/>
<path d="M224.236 311.828C319.237 305.785 393.995 265.418 391.212 221.666C388.428 177.914 309.158 147.345 214.156 153.388C119.155 159.431 44.3971 199.798 47.1805 243.55C49.964 287.302 129.234 317.871 224.236 311.828Z" stroke="#FFED65" stroke-width="0.8" stroke-miterlimit="10"/>
<path d="M225.202 308.368C317.956 297.866 389.228 254.732 384.393 212.026C379.557 169.32 300.444 143.213 207.689 153.715C114.935 164.217 43.6624 207.351 48.4982 250.057C53.334 292.763 132.447 318.87 225.202 308.368Z" stroke="#FFED65" stroke-width="0.8" stroke-miterlimit="10"/>
<path d="M226.213 304.841C316.704 289.877 384.475 243.963 377.583 202.288C370.69 160.613 291.746 138.96 201.255 153.923C110.764 168.887 42.9934 214.802 49.8855 256.476C56.7776 298.151 135.722 319.804 226.213 304.841Z" stroke="#FFED65" stroke-width="0.8" stroke-miterlimit="10"/>
<path d="M227.279 301.217C315.517 281.785 379.795 233.1 370.848 192.476C361.901 151.852 283.116 134.671 194.878 154.103C106.64 173.535 42.3625 222.22 51.3097 262.844C60.2569 303.469 139.041 320.649 227.279 301.217Z" stroke="#FFED65" stroke-width="0.8" stroke-miterlimit="10"/>
<path d="M228.278 297.757C314.252 273.867 375.027 222.405 364.025 182.814C353.022 143.222 274.407 130.493 188.434 154.383C102.461 178.272 41.6851 229.734 52.6877 269.326C63.6904 308.918 142.305 321.647 228.278 297.757Z" stroke="#FFED65" stroke-width="0.8" stroke-miterlimit="10"/>
<path d="M229.452 293.919C313.16 265.555 370.43 211.316 357.368 172.774C344.307 134.231 265.86 125.98 182.152 154.345C98.4444 182.709 41.1745 236.948 54.2361 275.491C67.2978 314.033 145.745 322.284 229.452 293.919Z" stroke="#FFED65" stroke-width="0.8" stroke-miterlimit="10"/>
<path d="M230.462 290.455C311.919 257.629 365.698 200.615 350.583 163.11C335.467 125.606 257.18 121.813 175.724 154.639C94.2678 187.465 40.4879 244.479 55.6034 281.984C70.719 319.488 149.006 323.281 230.462 290.455Z" stroke="#FFED65" stroke-width="0.8" stroke-miterlimit="10"/>
<path d="M231.459 287.029C310.657 249.746 360.939 189.956 343.768 153.483C326.596 117.01 248.473 117.666 169.275 154.949C90.0775 192.232 39.7953 252.022 56.9668 288.495C74.1383 324.968 152.261 324.312 231.459 287.029Z" stroke="#FFED65" stroke-width="0.8" stroke-miterlimit="10"/>
<path d="M232.536 283.331C309.471 241.579 356.25 179.009 337.019 143.578C317.789 108.148 239.832 113.273 162.897 155.025C85.9618 196.778 39.183 259.347 58.4133 294.778C77.6436 330.209 155.601 325.084 232.536 283.331Z" stroke="#FFED65" stroke-width="0.8" stroke-miterlimit="10"/>
<path d="M233.536 279.884C308.216 233.673 351.506 168.338 330.227 133.953C308.948 99.5685 231.158 109.156 156.478 155.367C81.798 201.578 38.5078 266.913 59.7867 301.298C81.0656 335.682 158.856 326.095 233.536 279.884Z" stroke="#FFED65" stroke-width="0.8" stroke-miterlimit="10"/>
<path d="M234.639 276.082C307.058 225.395 346.847 157.278 323.51 123.938C300.172 90.5984 222.546 104.661 150.127 155.348C77.7075 206.035 37.9187 274.152 61.2561 307.492C84.5934 340.832 162.22 326.769 234.639 276.082Z" stroke="#FFED65" stroke-width="0.8" stroke-miterlimit="10"/>
<path d="M235.688 272.553C305.85 217.403 342.14 146.506 316.744 114.201C291.348 81.895 213.883 100.414 143.72 155.564C73.5577 210.714 37.2673 281.611 62.6634 313.917C88.0595 346.222 165.525 327.703 235.688 272.553Z" stroke="#FFED65" stroke-width="0.8" stroke-miterlimit="10"/>
<path d="M236.693 269.036C304.603 209.421 337.406 135.752 309.961 104.491C282.515 73.2305 205.215 96.2162 137.305 155.831C69.3955 215.446 36.5926 289.115 64.0378 320.376C91.4831 351.636 168.784 328.651 236.693 269.036Z" stroke="#FFED65" stroke-width="0.8" stroke-miterlimit="10"/>
<path d="M237.742 265.376C303.384 201.299 332.684 124.86 303.185 94.6438C273.687 64.4274 196.56 91.8762 130.918 155.952C65.2758 220.029 35.9761 296.468 65.4749 326.684C94.9737 356.901 172.101 329.452 237.742 265.376Z" stroke="#FFED65" stroke-width="0.8" stroke-miterlimit="10"/>
<path d="M238.798 261.808C302.184 193.266 327.986 114.047 296.429 84.8668C264.871 55.6871 187.905 87.5968 124.52 156.139C61.1341 224.682 35.3321 303.901 66.8892 333.081C98.4463 362.26 175.412 330.351 238.798 261.808Z" stroke="#FFED65" stroke-width="0.8" stroke-miterlimit="10"/>
<path d="M239.84 258.292C300.971 185.288 323.285 103.298 289.68 75.1618C256.076 47.0256 179.278 83.3978 118.147 156.401C57.0169 229.405 34.7029 311.395 68.3075 339.531C101.912 367.667 178.71 331.295 239.84 258.292Z" stroke="#FFED65" stroke-width="0.8" stroke-miterlimit="10"/>
<path d="M240.873 254.678C299.741 177.211 318.555 92.4465 282.895 65.3514C247.235 38.2563 170.606 79.0909 111.738 156.558C52.8702 234.025 34.0563 318.789 69.7159 345.884C105.376 372.979 182.005 332.145 240.873 254.678Z" stroke="#FFED65" stroke-width="0.8" stroke-miterlimit="10"/>
<path d="M241.911 251.077C298.515 169.15 313.83 81.6142 276.116 55.5596C238.402 29.505 161.941 74.7983 105.336 156.725C48.7311 238.652 33.417 326.188 71.1309 352.242C108.845 378.297 185.306 333.004 241.911 251.077Z" stroke="#FFED65" stroke-width="0.8" stroke-miterlimit="10"/>
<path d="M242.966 247.771C297.327 161.384 309.156 71.068 269.386 46.0444C229.617 21.0207 153.308 70.7656 98.9462 157.153C44.5845 243.54 32.7554 333.856 72.5253 358.88C112.295 383.903 188.604 334.158 242.966 247.771Z" stroke="#FFED65" stroke-width="0.8" stroke-miterlimit="10"/>
</g>
</svg>
