<svg xmlns="http://www.w3.org/2000/svg" viewBox="0 0 181.05 112"><defs><style>.cls-1,.cls-2{fill:none;}.cls-2{stroke:#b4adea;stroke-miterlimit:10;stroke-width:2px;}.cls-3{fill:#b4adea;}</style></defs><g id="Capa_2" data-name="Capa 2"><g id="Capa_1-2" data-name="Capa 1"><path class="cls-1" d="M42.24,51.26c-2.25,0-6,1.14-7.44,6.52a11.45,11.45,0,0,0-.38,2.7c-.07,3.72,2.35,7.26,6.41,7.33,4.73.08,7.63-4.49,7.71-8.77A7.48,7.48,0,0,0,48,56,6.48,6.48,0,0,0,42.24,51.26Z"/><path class="cls-1" d="M146.84,29.64c-3.61,0-6.09,3.28-6.54,4-1.58,2.15-4.4,8.14-4.73,15.72a25.88,25.88,0,0,0,.67,8.7c.57,2.38,1.47,4.64,3.61,6a5.73,5.73,0,0,0,3.61,1.13,8.25,8.25,0,0,0,5.75-2.71c4-4.41,6-14.58,6-20.35C155.18,33.25,151.12,29.64,146.84,29.64Z"/><path class="cls-1" d="M42.24,51.26c-2.25,0-6,1.14-7.44,6.52a11.45,11.45,0,0,0-.38,2.7c-.07,3.72,2.35,7.26,6.41,7.33,4.73.08,7.63-4.49,7.71-8.77A7.48,7.48,0,0,0,48,56,6.48,6.48,0,0,0,42.24,51.26Z"/><path class="cls-2" d="M41.15,36.48l-2.93,2.83,1.21-7.82h0A100.76,100.76,0,0,0,12.82,31a.53.53,0,0,0-.47.49c-.84,10.39-2,21.19-3.42,32.35C6.8,80.16,4.15,95.61,1.2,110.07h0c3.89.46,8.16.79,12.76.9A135.6,135.6,0,0,0,28,110.54h0l4.49-31.37h0a21.91,21.91,0,0,0,4.19,5.14c4.13,3.38,9.57,4.24,12.43,4.39a14.87,14.87,0,0,0,4.9-.26c14.64-4.3,9.1-55.84,9.1-55.86h0A20.59,20.59,0,0,0,57,30.69a21.49,21.49,0,0,0-2.32-.18A17.15,17.15,0,0,0,41.15,36.48Zm-.32,31.33c-4.06-.07-6.48-3.61-6.41-7.33a11.45,11.45,0,0,1,.38-2.7c1.45-5.38,5.19-6.56,7.44-6.52A6.48,6.48,0,0,1,48,56a7.48,7.48,0,0,1,.52,3C48.46,63.32,45.56,67.89,40.83,67.81Z"/><path class="cls-2" d="M114.17,74.83c-1.44-2.24-2.55-4.16-3-4.94-4.52-8.31-4.21-19.4-4.15-21.71a54.88,54.88,0,0,1,2.72-15.67,21.51,21.51,0,0,0-3.85-.31c-8.09,0-12.7,3.2-15.74,6.38a1.36,1.36,0,0,1-2.34-1.11l4.6-33.81a1.35,1.35,0,0,0-1.15-1.53,88,88,0,0,0-25.38,0,2.14,2.14,0,0,0-1.14,1.18C62.65,9.61,62.66,28.89,63,32.46a24.27,24.27,0,0,1,6.88,5.95c2.82,3.62,5.28,9.13,5.28,17.77a42,42,0,0,1-1.8,12.4c-2.9,9.17-9.86,17.27-19.09,19.4l-.08.58a105.11,105.11,0,0,0,13.44.89,104.41,104.41,0,0,0,13-.76,1.35,1.35,0,0,0,1.18-1.18q1.52-12.33,3-24.65c.34-3.27.57-6.2,3.61-8a4.87,4.87,0,0,1,2.71-.9c3.94,0,3.94,4.51,3.94,5.29a20.65,20.65,0,0,1-.33,3.58.15.15,0,0,0,0,.07L92,87.52A1.36,1.36,0,0,0,93.1,89a73.74,73.74,0,0,0,12.5,1,72.12,72.12,0,0,0,10.07-.71c1.17-2.51,2.33-5,3.5-7.52C117.91,80.23,116.12,77.85,114.17,74.83Z"/><path class="cls-2" d="M116.28,15.49A36.12,36.12,0,0,1,145.2,1c4.1,0,15.21.85,23.85,9.9,7.23,7.61,11,19,11,30.18,0,4.23-.86,20.28-8.41,32A36.31,36.31,0,0,1,141.1,90a37.44,37.44,0,0,1-18.32-5.41,31.58,31.58,0,0,1-4.48-3.41,31.56,31.56,0,0,1-5.14-6.75c-6.93-12.36-6.48-27.89-6.48-27.89C106.79,41.56,107.76,26.84,116.28,15.49ZM134.63,57c.54,2.53,1.4,4.95,3.45,6.39a5.07,5.07,0,0,0,3.45,1.21c2.92,0,4.86-2.17,5.51-2.9,3.88-4.7,5.71-15.57,5.71-21.73,0-9.41-3.88-13.28-8-13.28-3.45,0-5.83,3.51-6.26,4.23C137,33.23,134.3,39.63,134,47.72A31,31,0,0,0,134.63,57Z"/><path class="cls-3" d="M73.43,70.35c.24-.68.49-1.44.49-1.44.13-.4.21-.68.21-.68.18-.6.3-1,.3-1a42.7,42.7,0,0,0,1.44-9.15c.44-8.62-1.73-14.25-4.36-18a25.31,25.31,0,0,0-3-3.42l0,0a20,20,0,0,0-6.84-4.25c-.91,10.07-2,18.53-3,25-1.05,6.91-1.53,10.38-2,12-1.62,5.59-2.34,11.42-4,17-.12.39-.49,1.61,0,2,.3.24.8.06,1,0,4.93-1.69,4.35-1.07,6-2a23,23,0,0,0,6-5A129.26,129.26,0,0,0,73.43,70.35Z"/><path class="cls-3" d="M122.47,41.33a17.85,17.85,0,0,0-10.08-8.75,17,17,0,0,0-3.87-.77,67.28,67.28,0,0,0-2,16s-.06,12.11,4.08,22.45a34.42,34.42,0,0,0,7.83,11.57c2.31-10.7,3.89-19.94,5-27.35C124.08,49.79,124.61,45.64,122.47,41.33Z"/><path class="cls-3" d="M49.25,60.71a9.51,9.51,0,0,1-2.56,5.13c-.51.51-3.38,3.41-7,2.65a7.33,7.33,0,0,1-4.4-3.16A9.49,9.49,0,0,1,34,57.77a10.1,10.1,0,0,1,4.71-6.26,6.86,6.86,0,0,1,4.14-.92,6.78,6.78,0,0,1,2.61.95,8.21,8.21,0,0,1,2.46,2.28A9.44,9.44,0,0,1,49.25,60.71Z"/><path class="cls-3" d="M132.78,44.05c-1.25,10.21,2.42,22.94,7.8,23.61s12.23-10.62,13.28-21c1-10.22-3.27-22.47-8.6-22.94S134,34.41,132.78,44.05Z"/></g></g></svg>