<svg xmlns="http://www.w3.org/2000/svg" viewBox="0 0 335 335"><defs><style>.cls-1{fill:none;stroke:#000;stroke-miterlimit:10;stroke-width:2px;}</style></defs><g id="Capa_2" data-name="Capa 2"><g id="Capa_1-2" data-name="Capa 1"><ellipse class="cls-1" cx="167.5" cy="167.5" rx="9.83" ry="123.16"/><ellipse class="cls-1" cx="167.5" cy="167.5" rx="10.8" ry="124.4"/><ellipse class="cls-1" cx="167.5" cy="167.5" rx="11.87" ry="125.66"/><ellipse class="cls-1" cx="167.5" cy="167.5" rx="13.05" ry="126.93"/><ellipse class="cls-1" cx="167.5" cy="167.5" rx="14.34" ry="128.21"/><ellipse class="cls-1" cx="167.5" cy="167.5" rx="15.76" ry="129.51"/><ellipse class="cls-1" cx="167.5" cy="167.5" rx="17.31" ry="130.82"/><ellipse class="cls-1" cx="167.5" cy="167.5" rx="19.03" ry="132.14"/><ellipse class="cls-1" cx="167.5" cy="167.5" rx="20.91" ry="133.47"/><ellipse class="cls-1" cx="167.5" cy="167.5" rx="22.98" ry="134.82"/><ellipse class="cls-1" cx="167.5" cy="167.5" rx="25.25" ry="136.18"/><ellipse class="cls-1" cx="167.5" cy="167.5" rx="27.75" ry="137.56"/><ellipse class="cls-1" cx="167.5" cy="167.5" rx="30.49" ry="138.95"/><ellipse class="cls-1" cx="167.5" cy="167.5" rx="33.51" ry="140.35"/><ellipse class="cls-1" cx="167.5" cy="167.5" rx="36.82" ry="141.77"/><ellipse class="cls-1" cx="167.5" cy="167.5" rx="40.46" ry="143.2"/><ellipse class="cls-1" cx="167.5" cy="167.5" rx="44.46" ry="144.65"/><ellipse class="cls-1" cx="167.5" cy="167.5" rx="48.86" ry="146.11"/><ellipse class="cls-1" cx="167.5" cy="167.5" rx="53.69" ry="147.58"/><ellipse class="cls-1" cx="167.5" cy="167.5" rx="59" ry="149.07"/><ellipse class="cls-1" cx="167.5" cy="167.5" rx="64.84" ry="150.58"/><ellipse class="cls-1" cx="167.5" cy="167.5" rx="71.25" ry="152.1"/><ellipse class="cls-1" cx="167.5" cy="167.5" rx="78.3" ry="153.64"/><ellipse class="cls-1" cx="167.5" cy="167.5" rx="86.04" ry="155.19"/><ellipse class="cls-1" cx="167.5" cy="167.5" rx="94.55" ry="156.76"/><ellipse class="cls-1" cx="167.5" cy="167.5" rx="103.9" ry="158.34"/><ellipse class="cls-1" cx="167.5" cy="167.5" rx="114.18" ry="159.94"/><ellipse class="cls-1" cx="167.5" cy="167.5" rx="125.47" ry="161.55"/><ellipse class="cls-1" cx="167.5" cy="167.5" rx="137.88" ry="163.19"/><ellipse class="cls-1" cx="167.5" cy="167.5" rx="151.51" ry="164.83"/><circle class="cls-1" cx="167.5" cy="167.5" r="166.5"/></g></g></svg>